<svg xmlns="http://www.w3.org/2000/svg" viewBox="0 0 1200 500" preserveAspectRatio="xMidYMid slice" width="1200" height="500">
<defs><linearGradient id="g" x1="0" y1="0" x2="0" y2="1">
    <stop offset="0" stop-color="#0a2a2e"/><stop offset="0.55" stop-color="#0f5a55"/><stop offset="1" stop-color="#08302c"/></linearGradient></defs><rect width="1200" height="500" fill="url(#g)"/>
     <circle cx="600" cy="190" r="64" fill="#9affd6" opacity="0.4"/>
     <!-- calendar grid -->
     <g fill="none" stroke="#7ef0c4" stroke-width="3" opacity="0.85">
       <rect x="300" y="280" width="50" height="50" rx="6"/><rect x="360" y="280" width="50" height="50" rx="6"/><rect x="420" y="280" width="50" height="50" rx="6"/><rect x="480" y="280" width="50" height="50" rx="6"/><rect x="540" y="280" width="50" height="50" rx="6"/><rect x="600" y="280" width="50" height="50" rx="6"/><rect x="660" y="280" width="50" height="50" rx="6"/><rect x="300" y="340" width="50" height="50" rx="6"/><rect x="360" y="340" width="50" height="50" rx="6"/><rect x="420" y="340" width="50" height="50" rx="6"/><rect x="480" y="340" width="50" height="50" rx="6"/><rect x="540" y="340" width="50" height="50" rx="6"/><rect x="600" y="340" width="50" height="50" rx="6"/><rect x="660" y="340" width="50" height="50" rx="6"/><rect x="300" y="400" width="50" height="50" rx="6"/><rect x="360" y="400" width="50" height="50" rx="6"/><rect x="420" y="400" width="50" height="50" rx="6"/><rect x="480" y="400" width="50" height="50" rx="6"/><rect x="540" y="400" width="50" height="50" rx="6"/><rect x="600" y="400" width="50" height="50" rx="6"/><rect x="660" y="400" width="50" height="50" rx="6"/><rect x="300" y="460" width="50" height="50" rx="6"/><rect x="360" y="460" width="50" height="50" rx="6"/><rect x="420" y="460" width="50" height="50" rx="6"/><rect x="480" y="460" width="50" height="50" rx="6"/><rect x="540" y="460" width="50" height="50" rx="6"/><rect x="600" y="460" width="50" height="50" rx="6"/><rect x="660" y="460" width="50" height="50" rx="6"/>
     </g>
     <rect x="360" y="280" width="50" height="50" rx="6" fill="#7ef0c4" opacity="0.6"/>
     <circle cx="12.4" cy="380.7" r="1.5" fill="#b6ffe0" opacity="0.59"/><circle cx="942.6" cy="122.5" r="1.4" fill="#b6ffe0" opacity="0.54"/><circle cx="420.7" cy="364.7" r="2.8" fill="#b6ffe0" opacity="0.22"/><circle cx="846.3" cy="334.9" r="2.9" fill="#b6ffe0" opacity="0.52"/><circle cx="706.0" cy="84.7" r="2.5" fill="#b6ffe0" opacity="0.30"/><circle cx="598.8" cy="113.4" r="1.1" fill="#b6ffe0" opacity="0.20"/><circle cx="943.8" cy="36.5" r="2.5" fill="#b6ffe0" opacity="0.56"/><circle cx="642.2" cy="136.4" r="2.6" fill="#b6ffe0" opacity="0.58"/><circle cx="840.5" cy="350.3" r="2.1" fill="#b6ffe0" opacity="0.45"/><circle cx="858.7" cy="109.1" r="1.5" fill="#b6ffe0" opacity="0.46"/><circle cx="406.0" cy="474.5" r="2.9" fill="#b6ffe0" opacity="0.24"/><circle cx="787.2" cy="9.0" r="2.2" fill="#b6ffe0" opacity="0.50"/><circle cx="299.8" cy="249.7" r="2.6" fill="#b6ffe0" opacity="0.19"/><circle cx="120.0" cy="76.0" r="2.8" fill="#b6ffe0" opacity="0.63"/><circle cx="827.4" cy="402.0" r="1.2" fill="#b6ffe0" opacity="0.15"/><circle cx="56.1" cy="237.4" r="1.1" fill="#b6ffe0" opacity="0.37"/><circle cx="425.1" cy="271.6" r="2.7" fill="#b6ffe0" opacity="0.58"/><circle cx="1195.9" cy="211.3" r="2.3" fill="#b6ffe0" opacity="0.38"/><circle cx="30.1" cy="76.4" r="3.4" fill="#b6ffe0" opacity="0.42"/><circle cx="41.4" cy="80.5" r="3.9" fill="#b6ffe0" opacity="0.37"/><circle cx="656.0" cy="303.8" r="3.9" fill="#b6ffe0" opacity="0.37"/><circle cx="1145.4" cy="313.4" r="2.7" fill="#b6ffe0" opacity="0.28"/><circle cx="340.6" cy="401.9" r="1.2" fill="#b6ffe0" opacity="0.48"/><circle cx="829.4" cy="17.3" r="3.6" fill="#b6ffe0" opacity="0.42"/><circle cx="430.4" cy="317.8" r="3.3" fill="#b6ffe0" opacity="0.52"/><circle cx="934.3" cy="59.4" r="2.2" fill="#b6ffe0" opacity="0.44"/><circle cx="76.9" cy="78.0" r="3.9" fill="#b6ffe0" opacity="0.48"/><circle cx="9.9" cy="246.1" r="1.1" fill="#b6ffe0" opacity="0.40"/><circle cx="726.3" cy="332.1" r="2.3" fill="#b6ffe0" opacity="0.32"/><circle cx="63.5" cy="22.4" r="1.4" fill="#b6ffe0" opacity="0.30"/><circle cx="237.9" cy="365.5" r="3.9" fill="#b6ffe0" opacity="0.29"/><circle cx="604.3" cy="335.8" r="3.9" fill="#b6ffe0" opacity="0.61"/><circle cx="1156.2" cy="234.9" r="3.1" fill="#b6ffe0" opacity="0.33"/><circle cx="711.1" cy="29.2" r="3.0" fill="#b6ffe0" opacity="0.24"/><circle cx="189.5" cy="445.5" r="3.0" fill="#b6ffe0" opacity="0.15"/><circle cx="640.2" cy="47.5" r="3.0" fill="#b6ffe0" opacity="0.50"/><circle cx="1135.2" cy="490.4" r="2.0" fill="#b6ffe0" opacity="0.27"/><circle cx="70.8" cy="163.9" r="4.0" fill="#b6ffe0" opacity="0.45"/><circle cx="584.0" cy="439.6" r="3.2" fill="#b6ffe0" opacity="0.28"/><circle cx="464.1" cy="153.1" r="1.5" fill="#b6ffe0" opacity="0.58"/>
     <rect width="1200" height="500" fill="url(#vig)"/>
  <radialGradient id="vig" cx="50%" cy="42%" r="75%">
    <stop offset="55%" stop-color="#000" stop-opacity="0"/>
    <stop offset="100%" stop-color="#000" stop-opacity="0.55"/></radialGradient></svg>