<svg xmlns="http://www.w3.org/2000/svg" viewBox="0 0 1200 500" preserveAspectRatio="xMidYMid slice" width="1200" height="500">
<defs><linearGradient id="g" x1="0" y1="0" x2="0" y2="1">
    <stop offset="0" stop-color="#2a1c02"/><stop offset="0.55" stop-color="#7a5a10"/><stop offset="1" stop-color="#1f1402"/></linearGradient></defs><rect width="1200" height="500" fill="url(#g)"/>
     <circle cx="600" cy="190" r="70" fill="#ffe08a" opacity="0.45"/>
     <!-- coins / handshake motif -->
     <g fill="#ffcf5c" opacity="0.9">
       <circle cx="260" cy="360" r="34"/><circle cx="350" cy="400" r="34"/><circle cx="440" cy="360" r="34"/><circle cx="530" cy="400" r="34"/><circle cx="620" cy="360" r="34"/><circle cx="710" cy="400" r="34"/><circle cx="800" cy="360" r="34"/>
     </g>
     <g fill="none" stroke="#ffe9a8" stroke-width="3" opacity="0.8">
       <circle cx="260" cy="360" r="22"/><circle cx="350" cy="400" r="22"/><circle cx="440" cy="360" r="22"/><circle cx="530" cy="400" r="22"/><circle cx="620" cy="360" r="22"/><circle cx="710" cy="400" r="22"/><circle cx="800" cy="360" r="22"/>
     </g>
     <circle cx="9.9" cy="149.3" r="1.6" fill="#ffe9a8" opacity="0.51"/><circle cx="240.6" cy="438.9" r="3.5" fill="#ffe9a8" opacity="0.61"/><circle cx="449.9" cy="419.9" r="1.4" fill="#ffe9a8" opacity="0.18"/><circle cx="1190.8" cy="305.9" r="2.8" fill="#ffe9a8" opacity="0.63"/><circle cx="896.6" cy="76.2" r="1.1" fill="#ffe9a8" opacity="0.54"/><circle cx="141.2" cy="146.2" r="3.2" fill="#ffe9a8" opacity="0.32"/><circle cx="108.9" cy="8.8" r="2.2" fill="#ffe9a8" opacity="0.40"/><circle cx="652.0" cy="280.4" r="1.1" fill="#ffe9a8" opacity="0.23"/><circle cx="1125.3" cy="132.5" r="2.5" fill="#ffe9a8" opacity="0.45"/><circle cx="1157.1" cy="19.4" r="2.5" fill="#ffe9a8" opacity="0.60"/><circle cx="737.0" cy="260.4" r="1.9" fill="#ffe9a8" opacity="0.55"/><circle cx="1149.8" cy="487.2" r="3.7" fill="#ffe9a8" opacity="0.60"/><circle cx="959.8" cy="79.8" r="3.2" fill="#ffe9a8" opacity="0.61"/><circle cx="963.8" cy="63.2" r="2.4" fill="#ffe9a8" opacity="0.32"/><circle cx="266.3" cy="309.0" r="3.6" fill="#ffe9a8" opacity="0.22"/><circle cx="33.1" cy="144.9" r="3.3" fill="#ffe9a8" opacity="0.58"/><circle cx="1024.8" cy="60.7" r="3.5" fill="#ffe9a8" opacity="0.19"/><circle cx="818.8" cy="50.1" r="1.7" fill="#ffe9a8" opacity="0.55"/><circle cx="515.6" cy="366.3" r="1.0" fill="#ffe9a8" opacity="0.57"/><circle cx="597.3" cy="19.5" r="2.3" fill="#ffe9a8" opacity="0.47"/><circle cx="790.2" cy="381.0" r="3.4" fill="#ffe9a8" opacity="0.19"/><circle cx="568.5" cy="343.2" r="3.0" fill="#ffe9a8" opacity="0.26"/><circle cx="511.1" cy="499.0" r="3.9" fill="#ffe9a8" opacity="0.35"/><circle cx="870.2" cy="278.4" r="4.0" fill="#ffe9a8" opacity="0.60"/><circle cx="472.2" cy="79.9" r="1.6" fill="#ffe9a8" opacity="0.60"/><circle cx="5.9" cy="262.2" r="1.5" fill="#ffe9a8" opacity="0.57"/><circle cx="947.3" cy="191.2" r="3.2" fill="#ffe9a8" opacity="0.15"/><circle cx="1178.9" cy="445.2" r="3.2" fill="#ffe9a8" opacity="0.37"/><circle cx="365.2" cy="145.5" r="3.1" fill="#ffe9a8" opacity="0.51"/><circle cx="232.6" cy="151.9" r="3.6" fill="#ffe9a8" opacity="0.21"/><circle cx="430.5" cy="394.4" r="1.5" fill="#ffe9a8" opacity="0.52"/><circle cx="554.4" cy="349.5" r="1.7" fill="#ffe9a8" opacity="0.18"/><circle cx="682.5" cy="137.2" r="2.0" fill="#ffe9a8" opacity="0.42"/><circle cx="245.8" cy="272.8" r="2.7" fill="#ffe9a8" opacity="0.45"/><circle cx="270.9" cy="118.7" r="3.5" fill="#ffe9a8" opacity="0.38"/><circle cx="1110.0" cy="389.0" r="3.9" fill="#ffe9a8" opacity="0.60"/><circle cx="384.1" cy="442.0" r="1.6" fill="#ffe9a8" opacity="0.26"/><circle cx="2.2" cy="168.5" r="2.2" fill="#ffe9a8" opacity="0.55"/><circle cx="559.9" cy="271.4" r="1.3" fill="#ffe9a8" opacity="0.35"/><circle cx="225.8" cy="338.9" r="1.9" fill="#ffe9a8" opacity="0.38"/>
     <rect width="1200" height="500" fill="url(#vig)"/>
  <radialGradient id="vig" cx="50%" cy="42%" r="75%">
    <stop offset="55%" stop-color="#000" stop-opacity="0"/>
    <stop offset="100%" stop-color="#000" stop-opacity="0.55"/></radialGradient></svg>