<svg xmlns="http://www.w3.org/2000/svg" viewBox="0 0 1200 500" preserveAspectRatio="xMidYMid slice" width="1200" height="500">
<defs><linearGradient id="g" x1="0" y1="0" x2="0" y2="1">
    <stop offset="0" stop-color="#04203a"/><stop offset="0.55" stop-color="#0a4a6a"/><stop offset="1" stop-color="#2a1605"/></linearGradient></defs><rect width="1200" height="500" fill="url(#g)"/>
     <circle cx="600" cy="220" r="70" fill="#9fe0ff" opacity="0.4"/>
     <!-- balance scale -->
     <g fill="none" stroke="#bfe6ff" stroke-width="4" opacity="0.9">
       <line x1="600" y1="160" x2="600" y2="360"/>
       <line x1="430" y1="220" x2="770" y2="220"/>
       <path d="M430 220 q-50 60 0 90 q50 -30 0 -90"/>
       <path d="M770 220 q-50 60 0 90 q50 -30 0 -90"/>
     </g>
     <circle cx="7.0" cy="326.7" r="3.1" fill="#bfe6ff" opacity="0.64"/><circle cx="690.5" cy="109.7" r="1.9" fill="#bfe6ff" opacity="0.22"/><circle cx="566.8" cy="9.8" r="2.9" fill="#bfe6ff" opacity="0.43"/><circle cx="268.8" cy="464.5" r="1.3" fill="#bfe6ff" opacity="0.29"/><circle cx="434.4" cy="386.8" r="2.7" fill="#bfe6ff" opacity="0.22"/><circle cx="137.4" cy="39.8" r="3.2" fill="#bfe6ff" opacity="0.56"/><circle cx="750.2" cy="98.3" r="3.9" fill="#bfe6ff" opacity="0.37"/><circle cx="1199.4" cy="446.5" r="3.2" fill="#bfe6ff" opacity="0.47"/><circle cx="1007.7" cy="299.2" r="1.2" fill="#bfe6ff" opacity="0.24"/><circle cx="574.7" cy="153.9" r="1.8" fill="#bfe6ff" opacity="0.15"/><circle cx="335.0" cy="456.4" r="4.0" fill="#bfe6ff" opacity="0.16"/><circle cx="766.7" cy="257.2" r="3.2" fill="#bfe6ff" opacity="0.42"/><circle cx="639.0" cy="154.3" r="3.6" fill="#bfe6ff" opacity="0.30"/><circle cx="397.0" cy="90.1" r="2.3" fill="#bfe6ff" opacity="0.59"/><circle cx="1065.6" cy="121.1" r="3.7" fill="#bfe6ff" opacity="0.36"/><circle cx="587.8" cy="196.1" r="1.7" fill="#bfe6ff" opacity="0.29"/><circle cx="1177.9" cy="241.3" r="2.8" fill="#bfe6ff" opacity="0.17"/><circle cx="987.8" cy="155.9" r="2.6" fill="#bfe6ff" opacity="0.20"/><circle cx="973.6" cy="181.5" r="1.9" fill="#bfe6ff" opacity="0.32"/><circle cx="882.0" cy="281.5" r="1.4" fill="#bfe6ff" opacity="0.48"/><circle cx="1035.6" cy="12.0" r="3.7" fill="#bfe6ff" opacity="0.32"/><circle cx="222.4" cy="78.8" r="1.5" fill="#bfe6ff" opacity="0.18"/><circle cx="712.1" cy="214.6" r="3.7" fill="#bfe6ff" opacity="0.52"/><circle cx="313.7" cy="477.6" r="2.0" fill="#bfe6ff" opacity="0.39"/><circle cx="72.7" cy="66.5" r="4.0" fill="#bfe6ff" opacity="0.42"/><circle cx="1173.6" cy="469.0" r="2.2" fill="#bfe6ff" opacity="0.52"/><circle cx="348.0" cy="370.6" r="3.4" fill="#bfe6ff" opacity="0.55"/><circle cx="1004.9" cy="430.0" r="2.6" fill="#bfe6ff" opacity="0.26"/><circle cx="1125.5" cy="26.6" r="2.9" fill="#bfe6ff" opacity="0.41"/><circle cx="990.8" cy="281.8" r="1.1" fill="#bfe6ff" opacity="0.56"/><circle cx="291.3" cy="470.6" r="1.7" fill="#bfe6ff" opacity="0.51"/><circle cx="188.7" cy="182.3" r="2.3" fill="#bfe6ff" opacity="0.62"/><circle cx="806.3" cy="77.3" r="1.7" fill="#bfe6ff" opacity="0.17"/><circle cx="901.6" cy="4.8" r="2.1" fill="#bfe6ff" opacity="0.55"/><circle cx="966.9" cy="324.9" r="2.2" fill="#bfe6ff" opacity="0.24"/><circle cx="697.7" cy="278.3" r="1.3" fill="#bfe6ff" opacity="0.21"/><circle cx="574.6" cy="287.5" r="2.1" fill="#bfe6ff" opacity="0.49"/><circle cx="113.8" cy="193.0" r="1.1" fill="#bfe6ff" opacity="0.56"/><circle cx="627.7" cy="408.9" r="2.3" fill="#bfe6ff" opacity="0.63"/><circle cx="40.9" cy="220.2" r="1.7" fill="#bfe6ff" opacity="0.30"/><circle cx="1057.6" cy="161.9" r="4.0" fill="#bfe6ff" opacity="0.37"/><circle cx="337.7" cy="127.6" r="3.6" fill="#bfe6ff" opacity="0.41"/><circle cx="738.1" cy="367.4" r="2.2" fill="#bfe6ff" opacity="0.27"/><circle cx="156.3" cy="324.5" r="1.9" fill="#bfe6ff" opacity="0.15"/><circle cx="951.6" cy="166.0" r="2.1" fill="#bfe6ff" opacity="0.39"/>
     <rect width="1200" height="500" fill="url(#vig)"/>
  <radialGradient id="vig" cx="50%" cy="42%" r="75%">
    <stop offset="55%" stop-color="#000" stop-opacity="0"/>
    <stop offset="100%" stop-color="#000" stop-opacity="0.55"/></radialGradient></svg>