<svg xmlns="http://www.w3.org/2000/svg" viewBox="0 0 1200 500" preserveAspectRatio="xMidYMid slice" width="1200" height="500">
<defs><linearGradient id="g" x1="0" y1="0" x2="0" y2="1">
    <stop offset="0" stop-color="#06303a"/><stop offset="0.55" stop-color="#0a4a52"/><stop offset="1" stop-color="#0b2a30"/></linearGradient></defs><rect width="1200" height="500" fill="url(#g)"/>
     <circle cx="930" cy="120" r="70" fill="#bfeaff" opacity="0.5"/>
     <circle cx="7.3" cy="237.5" r="0.6" fill="#cfefff" opacity="0.62"/><circle cx="994.9" cy="89.4" r="1.0" fill="#cfefff" opacity="0.76"/><circle cx="115.3" cy="181.2" r="1.1" fill="#cfefff" opacity="0.61"/><circle cx="403.5" cy="253.5" r="0.9" fill="#cfefff" opacity="0.57"/><circle cx="958.2" cy="332.7" r="1.0" fill="#cfefff" opacity="0.70"/><circle cx="860.0" cy="306.4" r="0.9" fill="#cfefff" opacity="0.44"/><circle cx="104.4" cy="110.6" r="0.6" fill="#cfefff" opacity="0.59"/><circle cx="681.0" cy="7.1" r="1.4" fill="#cfefff" opacity="0.41"/><circle cx="1051.4" cy="241.5" r="1.8" fill="#cfefff" opacity="0.74"/><circle cx="35.5" cy="246.9" r="0.6" fill="#cfefff" opacity="0.54"/><circle cx="1153.3" cy="179.0" r="1.3" fill="#cfefff" opacity="0.51"/><circle cx="748.6" cy="65.2" r="0.8" fill="#cfefff" opacity="0.83"/><circle cx="965.8" cy="121.1" r="1.2" fill="#cfefff" opacity="0.47"/><circle cx="959.6" cy="176.0" r="1.4" fill="#cfefff" opacity="0.73"/><circle cx="93.5" cy="310.9" r="1.6" fill="#cfefff" opacity="0.79"/><circle cx="356.2" cy="348.7" r="0.6" fill="#cfefff" opacity="0.67"/><circle cx="809.2" cy="295.4" r="1.4" fill="#cfefff" opacity="0.38"/><circle cx="746.1" cy="2.8" r="0.6" fill="#cfefff" opacity="0.87"/><circle cx="221.1" cy="133.3" r="1.1" fill="#cfefff" opacity="0.31"/><circle cx="453.0" cy="250.2" r="1.3" fill="#cfefff" opacity="0.52"/><circle cx="1083.3" cy="317.6" r="0.8" fill="#cfefff" opacity="0.41"/><circle cx="186.0" cy="223.0" r="0.6" fill="#cfefff" opacity="0.75"/><circle cx="697.1" cy="303.2" r="0.8" fill="#cfefff" opacity="0.77"/><circle cx="401.7" cy="266.2" r="1.7" fill="#cfefff" opacity="0.87"/><circle cx="646.1" cy="170.7" r="0.7" fill="#cfefff" opacity="0.36"/><circle cx="403.2" cy="245.0" r="0.5" fill="#cfefff" opacity="0.81"/><circle cx="990.7" cy="311.2" r="0.8" fill="#cfefff" opacity="0.63"/><circle cx="155.7" cy="113.8" r="1.1" fill="#cfefff" opacity="0.56"/><circle cx="832.0" cy="189.0" r="0.5" fill="#cfefff" opacity="0.84"/><circle cx="600.4" cy="159.9" r="1.1" fill="#cfefff" opacity="0.79"/><circle cx="402.6" cy="89.8" r="0.9" fill="#cfefff" opacity="0.45"/><circle cx="930.4" cy="241.7" r="1.8" fill="#cfefff" opacity="0.57"/><circle cx="999.0" cy="160.3" r="1.3" fill="#cfefff" opacity="0.32"/><circle cx="250.8" cy="238.2" r="0.8" fill="#cfefff" opacity="0.73"/><circle cx="359.8" cy="15.1" r="1.7" fill="#cfefff" opacity="0.68"/><circle cx="184.7" cy="185.9" r="1.7" fill="#cfefff" opacity="0.61"/><circle cx="113.8" cy="341.8" r="1.3" fill="#cfefff" opacity="0.70"/><circle cx="1072.5" cy="217.6" r="1.4" fill="#cfefff" opacity="0.86"/><circle cx="506.2" cy="144.3" r="1.5" fill="#cfefff" opacity="0.56"/><circle cx="1138.2" cy="146.7" r="1.2" fill="#cfefff" opacity="0.77"/><circle cx="698.0" cy="98.6" r="1.7" fill="#cfefff" opacity="0.37"/><circle cx="1120.8" cy="347.8" r="1.4" fill="#cfefff" opacity="0.77"/><circle cx="488.7" cy="60.2" r="1.0" fill="#cfefff" opacity="0.66"/><circle cx="300.3" cy="132.8" r="1.7" fill="#cfefff" opacity="0.54"/><circle cx="736.0" cy="153.8" r="1.0" fill="#cfefff" opacity="0.87"/><circle cx="218.6" cy="219.8" r="0.9" fill="#cfefff" opacity="0.41"/><circle cx="866.9" cy="135.5" r="0.9" fill="#cfefff" opacity="0.66"/><circle cx="416.5" cy="155.6" r="0.9" fill="#cfefff" opacity="0.36"/><circle cx="125.2" cy="341.3" r="0.8" fill="#cfefff" opacity="0.49"/><circle cx="488.4" cy="37.5" r="1.3" fill="#cfefff" opacity="0.59"/><circle cx="698.7" cy="282.0" r="0.6" fill="#cfefff" opacity="0.76"/><circle cx="37.7" cy="224.5" r="1.1" fill="#cfefff" opacity="0.69"/><circle cx="1145.3" cy="15.4" r="1.5" fill="#cfefff" opacity="0.65"/><circle cx="179.9" cy="33.2" r="1.7" fill="#cfefff" opacity="0.41"/><circle cx="1148.2" cy="53.2" r="1.0" fill="#cfefff" opacity="0.76"/><circle cx="1082.5" cy="285.3" r="0.7" fill="#cfefff" opacity="0.54"/><circle cx="570.5" cy="333.6" r="0.7" fill="#cfefff" opacity="0.43"/><circle cx="307.0" cy="195.3" r="0.9" fill="#cfefff" opacity="0.89"/><circle cx="566.4" cy="209.2" r="0.7" fill="#cfefff" opacity="0.77"/><circle cx="727.5" cy="271.6" r="0.6" fill="#cfefff" opacity="0.80"/>
     <!-- skyline of a healing city -->
     <g fill="#04181d" opacity="0.92">
       <rect x="40" y="320" width="90" height="160"/><rect x="150" y="270" width="70" height="210"/>
       <rect x="240" y="300" width="110" height="180"/><rect x="370" y="250" width="80" height="230"/>
       <rect x="470" y="300" width="120" height="180"/><rect x="610" y="280" width="70" height="200"/>
       <rect x="700" y="320" width="100" height="160"/><rect x="820" y="260" width="90" height="220"/>
       <rect x="930" y="300" width="120" height="180"/><rect x="1070" y="280" width="90" height="200"/>
     </g>
     <g fill="#0a3a44" opacity="0.5">
       <rect x="491" y="478" width="6" height="8"/><rect x="490" y="390" width="6" height="8"/><rect x="339" y="381" width="6" height="8"/><rect x="395" y="437" width="6" height="8"/><rect x="452" y="365" width="6" height="8"/><rect x="555" y="423" width="6" height="8"/><rect x="937" y="315" width="6" height="8"/><rect x="851" y="476" width="6" height="8"/><rect x="676" y="278" width="6" height="8"/><rect x="788" y="393" width="6" height="8"/><rect x="1155" y="402" width="6" height="8"/><rect x="137" y="304" width="6" height="8"/><rect x="685" y="418" width="6" height="8"/><rect x="385" y="277" width="6" height="8"/><rect x="779" y="394" width="6" height="8"/><rect x="62" y="369" width="6" height="8"/><rect x="440" y="285" width="6" height="8"/><rect x="92" y="394" width="6" height="8"/><rect x="619" y="483" width="6" height="8"/><rect x="669" y="286" width="6" height="8"/><rect x="1089" y="439" width="6" height="8"/><rect x="353" y="270" width="6" height="8"/><rect x="772" y="416" width="6" height="8"/><rect x="577" y="444" width="6" height="8"/><rect x="691" y="435" width="6" height="8"/><rect x="396" y="482" width="6" height="8"/><rect x="796" y="450" width="6" height="8"/><rect x="681" y="396" width="6" height="8"/><rect x="717" y="413" width="6" height="8"/><rect x="55" y="346" width="6" height="8"/><rect x="259" y="266" width="6" height="8"/><rect x="644" y="414" width="6" height="8"/><rect x="744" y="361" width="6" height="8"/><rect x="574" y="360" width="6" height="8"/><rect x="1129" y="447" width="6" height="8"/><rect x="563" y="426" width="6" height="8"/><rect x="234" y="384" width="6" height="8"/><rect x="972" y="359" width="6" height="8"/><rect x="683" y="496" width="6" height="8"/><rect x="215" y="489" width="6" height="8"/>
     </g>
     <rect width="1200" height="500" fill="url(#vig)"/>
  <radialGradient id="vig" cx="50%" cy="42%" r="75%">
    <stop offset="55%" stop-color="#000" stop-opacity="0"/>
    <stop offset="100%" stop-color="#000" stop-opacity="0.55"/></radialGradient></svg>