<svg xmlns="http://www.w3.org/2000/svg" viewBox="0 0 1200 500" preserveAspectRatio="xMidYMid slice" width="1200" height="500">
<defs><linearGradient id="g" x1="0" y1="0" x2="0" y2="1">
    <stop offset="0" stop-color="#3a0612"/><stop offset="0.55" stop-color="#7a1024"/><stop offset="1" stop-color="#2a0810"/></linearGradient></defs><rect width="1200" height="500" fill="url(#g)"/>
     <circle cx="600" cy="220" r="70" fill="#ff9bb0" opacity="0.4"/>
     <!-- heart pulse line -->
     <path d="M0 260 H420 L460 180 L520 340 L580 220 L640 300 L700 260 H1200" stroke="#ff7d96" stroke-width="5" fill="none" opacity="0.9"/>
     <path d="M560 230 C520 180 500 150 540 130 C580 112 600 150 600 160 C600 150 620 112 660 130 C700 150 680 180 640 230 Z" fill="#ff5d7e" opacity="0.85"/>
     <circle cx="6.0" cy="394.8" r="2.0" fill="#ffc2d0" opacity="0.23"/><circle cx="447.3" cy="238.5" r="3.9" fill="#ffc2d0" opacity="0.37"/><circle cx="854.2" cy="199.7" r="1.9" fill="#ffc2d0" opacity="0.58"/><circle cx="389.9" cy="11.2" r="1.2" fill="#ffc2d0" opacity="0.36"/><circle cx="626.6" cy="451.9" r="1.7" fill="#ffc2d0" opacity="0.44"/><circle cx="1126.3" cy="237.1" r="1.5" fill="#ffc2d0" opacity="0.49"/><circle cx="10.0" cy="326.8" r="2.7" fill="#ffc2d0" opacity="0.42"/><circle cx="1189.9" cy="329.2" r="3.6" fill="#ffc2d0" opacity="0.41"/><circle cx="219.1" cy="117.4" r="3.7" fill="#ffc2d0" opacity="0.19"/><circle cx="1188.9" cy="416.7" r="1.9" fill="#ffc2d0" opacity="0.51"/><circle cx="436.5" cy="442.3" r="2.0" fill="#ffc2d0" opacity="0.59"/><circle cx="20.8" cy="150.5" r="2.1" fill="#ffc2d0" opacity="0.43"/><circle cx="859.5" cy="497.0" r="1.8" fill="#ffc2d0" opacity="0.31"/><circle cx="554.8" cy="57.8" r="3.6" fill="#ffc2d0" opacity="0.18"/><circle cx="1093.9" cy="403.5" r="1.5" fill="#ffc2d0" opacity="0.44"/><circle cx="316.8" cy="190.5" r="3.6" fill="#ffc2d0" opacity="0.26"/><circle cx="589.2" cy="331.6" r="2.6" fill="#ffc2d0" opacity="0.55"/><circle cx="871.0" cy="489.1" r="3.9" fill="#ffc2d0" opacity="0.50"/><circle cx="601.3" cy="50.9" r="2.3" fill="#ffc2d0" opacity="0.58"/><circle cx="485.1" cy="451.7" r="1.3" fill="#ffc2d0" opacity="0.46"/><circle cx="383.5" cy="428.9" r="1.3" fill="#ffc2d0" opacity="0.42"/><circle cx="88.1" cy="9.6" r="3.9" fill="#ffc2d0" opacity="0.19"/><circle cx="785.6" cy="10.3" r="2.6" fill="#ffc2d0" opacity="0.21"/><circle cx="716.1" cy="477.7" r="2.6" fill="#ffc2d0" opacity="0.60"/><circle cx="594.5" cy="21.1" r="2.7" fill="#ffc2d0" opacity="0.45"/><circle cx="315.2" cy="31.7" r="3.9" fill="#ffc2d0" opacity="0.45"/><circle cx="1103.6" cy="72.1" r="1.4" fill="#ffc2d0" opacity="0.18"/><circle cx="533.5" cy="265.9" r="2.7" fill="#ffc2d0" opacity="0.48"/><circle cx="323.9" cy="199.9" r="1.1" fill="#ffc2d0" opacity="0.34"/><circle cx="926.3" cy="261.4" r="1.8" fill="#ffc2d0" opacity="0.19"/><circle cx="1153.0" cy="456.3" r="3.7" fill="#ffc2d0" opacity="0.60"/><circle cx="144.2" cy="77.5" r="2.3" fill="#ffc2d0" opacity="0.56"/><circle cx="276.8" cy="136.3" r="1.0" fill="#ffc2d0" opacity="0.33"/><circle cx="916.1" cy="8.8" r="3.3" fill="#ffc2d0" opacity="0.64"/><circle cx="402.0" cy="489.3" r="1.1" fill="#ffc2d0" opacity="0.47"/><circle cx="1079.0" cy="297.7" r="1.8" fill="#ffc2d0" opacity="0.34"/><circle cx="438.4" cy="192.2" r="2.0" fill="#ffc2d0" opacity="0.57"/><circle cx="725.4" cy="91.9" r="2.8" fill="#ffc2d0" opacity="0.26"/><circle cx="337.9" cy="122.7" r="2.1" fill="#ffc2d0" opacity="0.57"/><circle cx="858.8" cy="424.3" r="3.9" fill="#ffc2d0" opacity="0.43"/><circle cx="1050.2" cy="243.5" r="4.0" fill="#ffc2d0" opacity="0.39"/><circle cx="90.0" cy="183.0" r="3.0" fill="#ffc2d0" opacity="0.38"/><circle cx="658.9" cy="184.7" r="2.7" fill="#ffc2d0" opacity="0.23"/><circle cx="857.5" cy="160.2" r="1.8" fill="#ffc2d0" opacity="0.51"/><circle cx="237.0" cy="32.3" r="3.6" fill="#ffc2d0" opacity="0.17"/>
     <rect width="1200" height="500" fill="url(#vig)"/>
  <radialGradient id="vig" cx="50%" cy="42%" r="75%">
    <stop offset="55%" stop-color="#000" stop-opacity="0"/>
    <stop offset="100%" stop-color="#000" stop-opacity="0.55"/></radialGradient></svg>