<svg xmlns="http://www.w3.org/2000/svg" viewBox="0 0 1200 500" preserveAspectRatio="xMidYMid slice" width="1200" height="500">
<defs><linearGradient id="g" x1="0" y1="0" x2="0" y2="1">
    <stop offset="0" stop-color="#06210f"/><stop offset="0.55" stop-color="#0f3d1d"/><stop offset="1" stop-color="#082a16"/></linearGradient></defs><rect width="1200" height="500" fill="url(#g)"/>
     <circle cx="300" cy="130" r="80" fill="#eaffd0" opacity="0.45"/>
     <!-- rolling garden hills -->
     <path d="M0 380 Q300 300 600 360 T1200 340 V500 H0 Z" fill="#0a2a14" opacity="0.95"/>
     <path d="M0 420 Q350 360 700 410 T1200 400 V500 H0 Z" fill="#073d1c" opacity="0.95"/>
     <!-- stylized herb plants -->
     <g stroke="#7ee08a" stroke-width="4" fill="none" opacity="0.9">
       <path d="M80 470 C60 400 70 360 80 320"/><path d="M80 400 q-30 -10 -40 -30"/><path d="M80 370 q30 -10 40 -30"/><path d="M210 470 C190 400 200 360 210 320"/><path d="M210 400 q-30 -10 -40 -30"/><path d="M210 370 q30 -10 40 -30"/><path d="M340 470 C320 400 330 360 340 320"/><path d="M340 400 q-30 -10 -40 -30"/><path d="M340 370 q30 -10 40 -30"/><path d="M470 470 C450 400 460 360 470 320"/><path d="M470 400 q-30 -10 -40 -30"/><path d="M470 370 q30 -10 40 -30"/><path d="M600 470 C580 400 590 360 600 320"/><path d="M600 400 q-30 -10 -40 -30"/><path d="M600 370 q30 -10 40 -30"/><path d="M730 470 C710 400 720 360 730 320"/><path d="M730 400 q-30 -10 -40 -30"/><path d="M730 370 q30 -10 40 -30"/><path d="M860 470 C840 400 850 360 860 320"/><path d="M860 400 q-30 -10 -40 -30"/><path d="M860 370 q30 -10 40 -30"/><path d="M990 470 C970 400 980 360 990 320"/><path d="M990 400 q-30 -10 -40 -30"/><path d="M990 370 q30 -10 40 -30"/><path d="M1120 470 C1100 400 1110 360 1120 320"/><path d="M1120 400 q-30 -10 -40 -30"/><path d="M1120 370 q30 -10 40 -30"/>
     </g>
     <circle cx="5.1" cy="449.4" r="1.8" fill="#bff5c4" opacity="0.26"/><circle cx="193.8" cy="9.5" r="2.1" fill="#bff5c4" opacity="0.60"/><circle cx="168.9" cy="399.7" r="3.1" fill="#bff5c4" opacity="0.63"/><circle cx="1068.4" cy="317.2" r="3.4" fill="#bff5c4" opacity="0.40"/><circle cx="899.4" cy="74.7" r="3.0" fill="#bff5c4" opacity="0.16"/><circle cx="29.9" cy="85.2" r="2.4" fill="#bff5c4" opacity="0.40"/><circle cx="100.7" cy="7.3" r="2.7" fill="#bff5c4" opacity="0.38"/><circle cx="268.4" cy="470.9" r="3.0" fill="#bff5c4" opacity="0.56"/><circle cx="554.6" cy="291.7" r="3.2" fill="#bff5c4" opacity="0.61"/><circle cx="1190.6" cy="352.6" r="1.5" fill="#bff5c4" opacity="0.61"/><circle cx="184.8" cy="297.3" r="2.5" fill="#bff5c4" opacity="0.18"/><circle cx="202.2" cy="88.8" r="2.4" fill="#bff5c4" opacity="0.58"/><circle cx="1188.8" cy="112.9" r="1.4" fill="#bff5c4" opacity="0.40"/><circle cx="192.5" cy="87.4" r="2.9" fill="#bff5c4" opacity="0.52"/><circle cx="279.4" cy="418.4" r="1.2" fill="#bff5c4" opacity="0.47"/><circle cx="729.6" cy="468.9" r="1.8" fill="#bff5c4" opacity="0.63"/><circle cx="960.1" cy="126.7" r="2.4" fill="#bff5c4" opacity="0.60"/><circle cx="1013.9" cy="375.4" r="3.6" fill="#bff5c4" opacity="0.18"/><circle cx="416.5" cy="273.8" r="2.6" fill="#bff5c4" opacity="0.32"/><circle cx="225.8" cy="497.6" r="2.4" fill="#bff5c4" opacity="0.22"/><circle cx="232.2" cy="286.0" r="2.7" fill="#bff5c4" opacity="0.19"/><circle cx="1182.2" cy="162.0" r="3.5" fill="#bff5c4" opacity="0.65"/><circle cx="849.4" cy="470.2" r="3.1" fill="#bff5c4" opacity="0.20"/><circle cx="236.7" cy="327.3" r="2.8" fill="#bff5c4" opacity="0.64"/><circle cx="133.8" cy="287.1" r="1.5" fill="#bff5c4" opacity="0.60"/><circle cx="728.2" cy="103.7" r="3.4" fill="#bff5c4" opacity="0.21"/><circle cx="1026.1" cy="61.0" r="2.5" fill="#bff5c4" opacity="0.56"/><circle cx="82.2" cy="340.4" r="3.8" fill="#bff5c4" opacity="0.31"/><circle cx="1104.8" cy="53.8" r="3.4" fill="#bff5c4" opacity="0.58"/><circle cx="137.6" cy="336.5" r="1.7" fill="#bff5c4" opacity="0.30"/><circle cx="52.5" cy="1.5" r="2.9" fill="#bff5c4" opacity="0.30"/><circle cx="583.6" cy="296.4" r="2.6" fill="#bff5c4" opacity="0.31"/><circle cx="603.5" cy="76.9" r="1.3" fill="#bff5c4" opacity="0.38"/><circle cx="36.7" cy="122.8" r="3.9" fill="#bff5c4" opacity="0.64"/><circle cx="432.5" cy="260.1" r="2.5" fill="#bff5c4" opacity="0.53"/><circle cx="82.2" cy="482.7" r="3.3" fill="#bff5c4" opacity="0.58"/><circle cx="1.7" cy="162.6" r="2.3" fill="#bff5c4" opacity="0.39"/><circle cx="1075.4" cy="154.7" r="1.3" fill="#bff5c4" opacity="0.17"/><circle cx="1116.7" cy="334.6" r="1.2" fill="#bff5c4" opacity="0.24"/><circle cx="357.4" cy="12.9" r="1.2" fill="#bff5c4" opacity="0.58"/>
     <rect width="1200" height="500" fill="url(#vig)"/>
  <radialGradient id="vig" cx="50%" cy="42%" r="75%">
    <stop offset="55%" stop-color="#000" stop-opacity="0"/>
    <stop offset="100%" stop-color="#000" stop-opacity="0.55"/></radialGradient></svg>