<svg xmlns="http://www.w3.org/2000/svg" viewBox="0 0 1200 500" preserveAspectRatio="xMidYMid slice" width="1200" height="500">
<defs><linearGradient id="g" x1="0" y1="0" x2="0" y2="1">
    <stop offset="0" stop-color="#1a1030"/><stop offset="0.55" stop-color="#2e1d54"/><stop offset="1" stop-color="#120a26"/></linearGradient></defs><rect width="1200" height="500" fill="url(#g)"/>
     <!-- classical ayurvedic hospital / temple arch -->
     <g fill="#1a1030">
       <rect x="420" y="200" width="360" height="260" rx="6"/>
       <path d="M420 200 q180 -90 360 0 Z"/>
     </g>
     <g fill="#2e1d54" opacity="0.8">
       <rect x="470" y="250" width="60" height="210"/><rect x="570" y="250" width="60" height="210"/>
       <rect x="670" y="250" width="60" height="210"/><rect x="760" y="250" width="60" height="210"/>
     </g>
     <circle cx="600" cy="150" r="46" fill="#ffe6a8" opacity="0.7"/>
     <circle cx="9.3" cy="111.2" r="1.1" fill="#d9c6ff" opacity="0.18"/><circle cx="527.5" cy="384.8" r="2.7" fill="#d9c6ff" opacity="0.19"/><circle cx="604.1" cy="173.0" r="3.0" fill="#d9c6ff" opacity="0.26"/><circle cx="786.8" cy="113.2" r="3.8" fill="#d9c6ff" opacity="0.35"/><circle cx="525.5" cy="310.6" r="2.7" fill="#d9c6ff" opacity="0.24"/><circle cx="373.3" cy="452.5" r="1.3" fill="#d9c6ff" opacity="0.22"/><circle cx="846.3" cy="329.7" r="1.1" fill="#d9c6ff" opacity="0.34"/><circle cx="1007.2" cy="89.3" r="1.7" fill="#d9c6ff" opacity="0.44"/><circle cx="994.2" cy="494.9" r="3.2" fill="#d9c6ff" opacity="0.63"/><circle cx="374.6" cy="423.2" r="1.4" fill="#d9c6ff" opacity="0.49"/><circle cx="682.2" cy="362.4" r="2.3" fill="#d9c6ff" opacity="0.56"/><circle cx="4.1" cy="479.5" r="2.0" fill="#d9c6ff" opacity="0.58"/><circle cx="1179.4" cy="23.6" r="3.5" fill="#d9c6ff" opacity="0.63"/><circle cx="476.0" cy="78.9" r="3.0" fill="#d9c6ff" opacity="0.57"/><circle cx="782.7" cy="339.9" r="1.3" fill="#d9c6ff" opacity="0.63"/><circle cx="727.9" cy="238.8" r="1.4" fill="#d9c6ff" opacity="0.57"/><circle cx="930.8" cy="18.5" r="2.4" fill="#d9c6ff" opacity="0.56"/><circle cx="343.9" cy="5.8" r="3.1" fill="#d9c6ff" opacity="0.30"/><circle cx="373.2" cy="339.6" r="2.3" fill="#d9c6ff" opacity="0.55"/><circle cx="684.2" cy="291.6" r="3.7" fill="#d9c6ff" opacity="0.40"/><circle cx="647.0" cy="55.9" r="3.1" fill="#d9c6ff" opacity="0.44"/><circle cx="677.6" cy="124.0" r="3.6" fill="#d9c6ff" opacity="0.23"/><circle cx="556.0" cy="343.2" r="3.6" fill="#d9c6ff" opacity="0.28"/><circle cx="606.1" cy="70.5" r="1.6" fill="#d9c6ff" opacity="0.41"/><circle cx="1152.0" cy="47.8" r="2.9" fill="#d9c6ff" opacity="0.27"/><circle cx="1117.1" cy="119.1" r="2.0" fill="#d9c6ff" opacity="0.42"/><circle cx="219.3" cy="469.1" r="2.1" fill="#d9c6ff" opacity="0.51"/><circle cx="126.4" cy="247.7" r="3.4" fill="#d9c6ff" opacity="0.55"/><circle cx="45.6" cy="415.1" r="2.8" fill="#d9c6ff" opacity="0.46"/><circle cx="203.8" cy="312.0" r="2.7" fill="#d9c6ff" opacity="0.21"/><circle cx="96.5" cy="421.1" r="3.9" fill="#d9c6ff" opacity="0.23"/><circle cx="729.0" cy="360.7" r="2.6" fill="#d9c6ff" opacity="0.41"/><circle cx="104.3" cy="182.1" r="1.4" fill="#d9c6ff" opacity="0.42"/><circle cx="998.1" cy="266.4" r="3.9" fill="#d9c6ff" opacity="0.57"/><circle cx="892.3" cy="28.8" r="1.9" fill="#d9c6ff" opacity="0.21"/><circle cx="249.0" cy="427.4" r="2.8" fill="#d9c6ff" opacity="0.49"/><circle cx="566.5" cy="339.5" r="2.2" fill="#d9c6ff" opacity="0.27"/><circle cx="726.2" cy="314.7" r="2.2" fill="#d9c6ff" opacity="0.39"/><circle cx="924.6" cy="379.8" r="1.2" fill="#d9c6ff" opacity="0.64"/><circle cx="534.0" cy="370.6" r="2.3" fill="#d9c6ff" opacity="0.17"/><circle cx="436.0" cy="333.7" r="2.3" fill="#d9c6ff" opacity="0.26"/><circle cx="109.7" cy="328.4" r="1.7" fill="#d9c6ff" opacity="0.45"/><circle cx="14.3" cy="105.0" r="3.6" fill="#d9c6ff" opacity="0.55"/><circle cx="302.3" cy="288.3" r="2.1" fill="#d9c6ff" opacity="0.49"/><circle cx="632.1" cy="379.1" r="2.0" fill="#d9c6ff" opacity="0.53"/><circle cx="34.7" cy="388.6" r="3.6" fill="#d9c6ff" opacity="0.33"/><circle cx="155.5" cy="48.0" r="3.4" fill="#d9c6ff" opacity="0.57"/><circle cx="749.2" cy="125.6" r="2.6" fill="#d9c6ff" opacity="0.60"/><circle cx="467.8" cy="192.9" r="1.9" fill="#d9c6ff" opacity="0.46"/><circle cx="1024.5" cy="205.7" r="3.8" fill="#d9c6ff" opacity="0.38"/>
     <rect width="1200" height="500" fill="url(#vig)"/>
  <radialGradient id="vig" cx="50%" cy="42%" r="75%">
    <stop offset="55%" stop-color="#000" stop-opacity="0"/>
    <stop offset="100%" stop-color="#000" stop-opacity="0.55"/></radialGradient></svg>