<svg xmlns="http://www.w3.org/2000/svg" viewBox="0 0 1200 500" preserveAspectRatio="xMidYMid slice" width="1200" height="500">
<defs><linearGradient id="g" x1="0" y1="0" x2="0" y2="1">
    <stop offset="0" stop-color="#101a3a"/><stop offset="0.55" stop-color="#26327a"/><stop offset="1" stop-color="#0c1330"/></linearGradient></defs><rect width="1200" height="500" fill="url(#g)"/>
     <!-- shirodhara oil stream + flowing spiral -->
     <circle cx="600" cy="200" r="60" fill="#aebfff" opacity="0.4"/>
     <path d="M600 200 Q580 320 600 420" stroke="#9fc0ff" stroke-width="6" fill="none" opacity="0.8"/>
     <g fill="none" stroke="#7e9bff" stroke-width="3" opacity="0.7">
       <path d="M600 260 a20 20 0 1 1 -20 20"/><path d="M600 290 a38 38 0 1 1 -38 38"/><path d="M600 320 a56 56 0 1 1 -56 56"/><path d="M600 350 a74 74 0 1 1 -74 74"/><path d="M600 380 a92 92 0 1 1 -92 92"/>
     </g>
     <circle cx="9.1" cy="427.4" r="2.3" fill="#b9c8ff" opacity="0.55"/><circle cx="1019.7" cy="414.2" r="3.2" fill="#b9c8ff" opacity="0.58"/><circle cx="331.3" cy="260.7" r="3.3" fill="#b9c8ff" opacity="0.59"/><circle cx="838.0" cy="302.0" r="3.9" fill="#b9c8ff" opacity="0.58"/><circle cx="428.6" cy="241.3" r="3.0" fill="#b9c8ff" opacity="0.64"/><circle cx="955.6" cy="271.5" r="2.5" fill="#b9c8ff" opacity="0.34"/><circle cx="569.1" cy="87.4" r="2.2" fill="#b9c8ff" opacity="0.45"/><circle cx="421.6" cy="278.6" r="3.5" fill="#b9c8ff" opacity="0.58"/><circle cx="125.2" cy="67.8" r="2.4" fill="#b9c8ff" opacity="0.17"/><circle cx="1109.6" cy="115.5" r="1.9" fill="#b9c8ff" opacity="0.20"/><circle cx="146.2" cy="19.4" r="2.3" fill="#b9c8ff" opacity="0.28"/><circle cx="331.3" cy="325.3" r="3.8" fill="#b9c8ff" opacity="0.62"/><circle cx="88.9" cy="95.9" r="1.1" fill="#b9c8ff" opacity="0.33"/><circle cx="140.1" cy="104.7" r="1.6" fill="#b9c8ff" opacity="0.57"/><circle cx="1073.9" cy="261.0" r="3.3" fill="#b9c8ff" opacity="0.58"/><circle cx="387.4" cy="198.1" r="3.5" fill="#b9c8ff" opacity="0.20"/><circle cx="19.4" cy="72.7" r="3.1" fill="#b9c8ff" opacity="0.25"/><circle cx="272.2" cy="342.1" r="3.1" fill="#b9c8ff" opacity="0.34"/><circle cx="388.2" cy="115.3" r="3.7" fill="#b9c8ff" opacity="0.37"/><circle cx="759.0" cy="340.8" r="1.6" fill="#b9c8ff" opacity="0.47"/><circle cx="766.1" cy="427.6" r="2.3" fill="#b9c8ff" opacity="0.24"/><circle cx="1123.5" cy="458.1" r="2.8" fill="#b9c8ff" opacity="0.20"/><circle cx="567.7" cy="346.1" r="3.0" fill="#b9c8ff" opacity="0.52"/><circle cx="224.2" cy="451.0" r="2.7" fill="#b9c8ff" opacity="0.30"/><circle cx="651.0" cy="474.2" r="3.3" fill="#b9c8ff" opacity="0.53"/><circle cx="311.4" cy="407.8" r="1.5" fill="#b9c8ff" opacity="0.32"/><circle cx="499.0" cy="324.2" r="3.8" fill="#b9c8ff" opacity="0.21"/><circle cx="582.3" cy="261.3" r="2.8" fill="#b9c8ff" opacity="0.32"/><circle cx="66.6" cy="398.4" r="2.1" fill="#b9c8ff" opacity="0.38"/><circle cx="352.8" cy="397.2" r="3.1" fill="#b9c8ff" opacity="0.54"/><circle cx="531.1" cy="449.8" r="3.7" fill="#b9c8ff" opacity="0.50"/><circle cx="148.5" cy="472.3" r="2.9" fill="#b9c8ff" opacity="0.25"/><circle cx="997.0" cy="324.2" r="1.5" fill="#b9c8ff" opacity="0.55"/><circle cx="150.8" cy="134.3" r="1.0" fill="#b9c8ff" opacity="0.58"/><circle cx="897.9" cy="201.0" r="3.2" fill="#b9c8ff" opacity="0.60"/><circle cx="702.7" cy="328.7" r="2.7" fill="#b9c8ff" opacity="0.15"/><circle cx="927.1" cy="160.6" r="3.5" fill="#b9c8ff" opacity="0.19"/><circle cx="80.2" cy="418.1" r="1.1" fill="#b9c8ff" opacity="0.24"/><circle cx="602.3" cy="82.0" r="1.9" fill="#b9c8ff" opacity="0.47"/><circle cx="197.1" cy="9.3" r="1.7" fill="#b9c8ff" opacity="0.44"/><circle cx="1082.6" cy="45.9" r="2.2" fill="#b9c8ff" opacity="0.43"/><circle cx="696.8" cy="213.3" r="2.7" fill="#b9c8ff" opacity="0.17"/><circle cx="1148.6" cy="412.1" r="2.5" fill="#b9c8ff" opacity="0.58"/><circle cx="711.3" cy="328.5" r="1.2" fill="#b9c8ff" opacity="0.20"/><circle cx="1166.1" cy="163.2" r="1.7" fill="#b9c8ff" opacity="0.43"/><circle cx="885.0" cy="317.9" r="1.9" fill="#b9c8ff" opacity="0.44"/><circle cx="480.0" cy="110.7" r="2.7" fill="#b9c8ff" opacity="0.39"/><circle cx="146.5" cy="377.9" r="1.2" fill="#b9c8ff" opacity="0.54"/><circle cx="699.3" cy="334.9" r="3.0" fill="#b9c8ff" opacity="0.30"/><circle cx="875.0" cy="11.0" r="1.1" fill="#b9c8ff" opacity="0.45"/>
     <rect width="1200" height="500" fill="url(#vig)"/>
  <radialGradient id="vig" cx="50%" cy="42%" r="75%">
    <stop offset="55%" stop-color="#000" stop-opacity="0"/>
    <stop offset="100%" stop-color="#000" stop-opacity="0.55"/></radialGradient></svg>