<svg xmlns="http://www.w3.org/2000/svg" viewBox="0 0 1200 500" preserveAspectRatio="xMidYMid slice" width="1200" height="500">
<defs><linearGradient id="g" x1="0" y1="0" x2="0" y2="1">
    <stop offset="0" stop-color="#1a2a06"/><stop offset="0.55" stop-color="#3d6a10"/><stop offset="1" stop-color="#122606"/></linearGradient></defs><rect width="1200" height="500" fill="url(#g)"/>
     <circle cx="600" cy="220" r="60" fill="#d4ff7e" opacity="0.4"/>
     <!-- upward trend line + dots -->
     <polyline points="120,439.8818218241827 215,403.77939903818975 310,370.35963485499826 405,344.3830079559158 500,315.2147150762448 595,283.71628644583575 690,249.6262951612595 785,219.14277528838383 880,182.62427186715615 975,156.1372712935029 1070,129.11862990312216" fill="none" stroke="#c4f56a" stroke-width="5" opacity="0.95"/>
     <circle cx="120" cy="440" r="6" fill="#e6ff9c"/><circle cx="215" cy="410" r="6" fill="#e6ff9c"/><circle cx="310" cy="380" r="6" fill="#e6ff9c"/><circle cx="405" cy="350" r="6" fill="#e6ff9c"/><circle cx="500" cy="320" r="6" fill="#e6ff9c"/><circle cx="595" cy="290" r="6" fill="#e6ff9c"/><circle cx="690" cy="260" r="6" fill="#e6ff9c"/><circle cx="785" cy="230" r="6" fill="#e6ff9c"/><circle cx="880" cy="200" r="6" fill="#e6ff9c"/><circle cx="975" cy="170" r="6" fill="#e6ff9c"/><circle cx="1070" cy="140" r="6" fill="#e6ff9c"/>
     <circle cx="191.2" cy="189.4" r="1.3" fill="#dcff9c" opacity="0.33"/><circle cx="1108.4" cy="358.9" r="3.4" fill="#dcff9c" opacity="0.39"/><circle cx="559.1" cy="101.0" r="2.5" fill="#dcff9c" opacity="0.49"/><circle cx="575.5" cy="428.0" r="3.5" fill="#dcff9c" opacity="0.37"/><circle cx="850.6" cy="39.8" r="2.2" fill="#dcff9c" opacity="0.30"/><circle cx="551.4" cy="76.0" r="3.5" fill="#dcff9c" opacity="0.52"/><circle cx="980.2" cy="321.1" r="1.3" fill="#dcff9c" opacity="0.27"/><circle cx="996.8" cy="257.2" r="3.5" fill="#dcff9c" opacity="0.45"/><circle cx="940.4" cy="448.3" r="3.6" fill="#dcff9c" opacity="0.59"/><circle cx="1144.7" cy="448.0" r="2.5" fill="#dcff9c" opacity="0.50"/><circle cx="825.0" cy="259.8" r="2.7" fill="#dcff9c" opacity="0.27"/><circle cx="855.5" cy="160.3" r="3.2" fill="#dcff9c" opacity="0.38"/><circle cx="871.3" cy="6.5" r="3.7" fill="#dcff9c" opacity="0.55"/><circle cx="1043.8" cy="457.4" r="3.9" fill="#dcff9c" opacity="0.62"/><circle cx="604.0" cy="281.0" r="3.0" fill="#dcff9c" opacity="0.17"/><circle cx="32.8" cy="98.4" r="3.8" fill="#dcff9c" opacity="0.63"/><circle cx="787.9" cy="219.9" r="3.4" fill="#dcff9c" opacity="0.62"/><circle cx="605.3" cy="1.0" r="3.0" fill="#dcff9c" opacity="0.64"/><circle cx="940.5" cy="263.3" r="1.9" fill="#dcff9c" opacity="0.57"/><circle cx="823.3" cy="295.3" r="3.6" fill="#dcff9c" opacity="0.18"/><circle cx="327.6" cy="8.3" r="2.6" fill="#dcff9c" opacity="0.30"/><circle cx="859.3" cy="60.5" r="2.0" fill="#dcff9c" opacity="0.32"/><circle cx="747.5" cy="332.3" r="1.8" fill="#dcff9c" opacity="0.57"/><circle cx="764.9" cy="29.3" r="2.8" fill="#dcff9c" opacity="0.56"/><circle cx="1146.7" cy="254.8" r="2.1" fill="#dcff9c" opacity="0.30"/><circle cx="1153.1" cy="355.4" r="2.5" fill="#dcff9c" opacity="0.53"/><circle cx="887.9" cy="312.2" r="2.9" fill="#dcff9c" opacity="0.45"/><circle cx="567.1" cy="348.9" r="1.9" fill="#dcff9c" opacity="0.28"/><circle cx="949.7" cy="145.8" r="3.7" fill="#dcff9c" opacity="0.21"/><circle cx="159.2" cy="288.2" r="3.2" fill="#dcff9c" opacity="0.49"/><circle cx="365.2" cy="251.5" r="2.2" fill="#dcff9c" opacity="0.30"/><circle cx="879.2" cy="152.2" r="2.2" fill="#dcff9c" opacity="0.31"/><circle cx="491.5" cy="266.0" r="2.0" fill="#dcff9c" opacity="0.60"/><circle cx="1025.3" cy="197.7" r="2.9" fill="#dcff9c" opacity="0.19"/><circle cx="598.2" cy="177.7" r="3.5" fill="#dcff9c" opacity="0.32"/><circle cx="752.2" cy="76.6" r="3.5" fill="#dcff9c" opacity="0.17"/><circle cx="117.9" cy="333.8" r="3.1" fill="#dcff9c" opacity="0.32"/><circle cx="384.1" cy="60.3" r="3.1" fill="#dcff9c" opacity="0.62"/><circle cx="544.8" cy="211.6" r="3.3" fill="#dcff9c" opacity="0.15"/><circle cx="271.1" cy="176.3" r="3.4" fill="#dcff9c" opacity="0.17"/>
     <rect width="1200" height="500" fill="url(#vig)"/>
  <radialGradient id="vig" cx="50%" cy="42%" r="75%">
    <stop offset="55%" stop-color="#000" stop-opacity="0"/>
    <stop offset="100%" stop-color="#000" stop-opacity="0.55"/></radialGradient></svg>