<svg xmlns="http://www.w3.org/2000/svg" viewBox="0 0 1200 500" preserveAspectRatio="xMidYMid slice" width="1200" height="500">
<defs><linearGradient id="g" x1="0" y1="0" x2="0" y2="1">
    <stop offset="0" stop-color="#3a2206"/><stop offset="0.55" stop-color="#7a4410"/><stop offset="1" stop-color="#2a1605"/></linearGradient></defs><rect width="1200" height="500" fill="url(#g)"/>
     <circle cx="600" cy="170" r="90" fill="#ffd28a" opacity="0.5"/>
     <!-- sun + lotus -->
     <g fill="none" stroke="#ffcf8f" stroke-width="4" opacity="0.85">
       <circle cx="600" cy="170" r="46"/>
       <line x1="652" y1="170" x2="674" y2="170"/><line x1="645.0333209967908" y1="196" x2="664.0858798800484" y2="207"/><line x1="626" y1="215.0333209967908" x2="637" y2="234.08587988004845"/><line x1="600" y1="222" x2="600" y2="244"/><line x1="574" y1="215.03332099679082" x2="563" y2="234.08587988004848"/><line x1="554.9666790032092" y1="196" x2="535.9141201199516" y2="207"/><line x1="548" y1="170" x2="526" y2="170"/><line x1="554.9666790032092" y1="144" x2="535.9141201199516" y2="133"/><line x1="574" y1="124.96667900320921" x2="563" y2="105.91412011995155"/><line x1="600" y1="118" x2="600" y2="96"/><line x1="626" y1="124.9666790032092" x2="637" y2="105.91412011995155"/><line x1="645.0333209967907" y1="143.99999999999997" x2="664.0858798800484" y2="132.99999999999997"/>
     </g>
     <path d="M600 470 C500 380 440 320 470 300 C540 330 580 390 600 430 C620 390 660 330 730 300 C760 320 700 380 600 470 Z" fill="#ffb968" opacity="0.9"/>
     <circle cx="4.1" cy="372.5" r="3.1" fill="#ffe0b0" opacity="0.32"/><circle cx="1061.8" cy="61.5" r="3.0" fill="#ffe0b0" opacity="0.16"/><circle cx="253.3" cy="165.1" r="2.1" fill="#ffe0b0" opacity="0.16"/><circle cx="952.5" cy="88.6" r="2.4" fill="#ffe0b0" opacity="0.42"/><circle cx="761.5" cy="189.8" r="2.0" fill="#ffe0b0" opacity="0.32"/><circle cx="331.6" cy="246.6" r="2.7" fill="#ffe0b0" opacity="0.38"/><circle cx="560.7" cy="160.9" r="2.1" fill="#ffe0b0" opacity="0.19"/><circle cx="748.5" cy="411.3" r="2.9" fill="#ffe0b0" opacity="0.45"/><circle cx="260.2" cy="418.5" r="1.4" fill="#ffe0b0" opacity="0.20"/><circle cx="874.0" cy="32.1" r="1.2" fill="#ffe0b0" opacity="0.34"/><circle cx="540.1" cy="169.8" r="1.7" fill="#ffe0b0" opacity="0.51"/><circle cx="20.0" cy="454.6" r="1.9" fill="#ffe0b0" opacity="0.34"/><circle cx="863.6" cy="292.3" r="2.5" fill="#ffe0b0" opacity="0.51"/><circle cx="459.6" cy="342.1" r="3.2" fill="#ffe0b0" opacity="0.20"/><circle cx="697.4" cy="35.6" r="1.4" fill="#ffe0b0" opacity="0.44"/><circle cx="171.2" cy="242.8" r="3.0" fill="#ffe0b0" opacity="0.18"/><circle cx="163.1" cy="427.9" r="3.5" fill="#ffe0b0" opacity="0.57"/><circle cx="82.2" cy="187.9" r="3.4" fill="#ffe0b0" opacity="0.47"/><circle cx="766.7" cy="82.9" r="2.7" fill="#ffe0b0" opacity="0.60"/><circle cx="108.2" cy="493.4" r="1.9" fill="#ffe0b0" opacity="0.21"/><circle cx="494.2" cy="17.7" r="3.9" fill="#ffe0b0" opacity="0.27"/><circle cx="192.6" cy="184.8" r="1.6" fill="#ffe0b0" opacity="0.38"/><circle cx="914.4" cy="41.6" r="2.1" fill="#ffe0b0" opacity="0.39"/><circle cx="114.8" cy="163.6" r="2.5" fill="#ffe0b0" opacity="0.34"/><circle cx="1084.1" cy="211.6" r="1.7" fill="#ffe0b0" opacity="0.33"/><circle cx="1051.7" cy="207.9" r="1.3" fill="#ffe0b0" opacity="0.29"/><circle cx="579.7" cy="478.2" r="1.8" fill="#ffe0b0" opacity="0.41"/><circle cx="748.2" cy="416.4" r="2.2" fill="#ffe0b0" opacity="0.40"/><circle cx="554.8" cy="16.9" r="1.9" fill="#ffe0b0" opacity="0.48"/><circle cx="165.5" cy="199.0" r="3.3" fill="#ffe0b0" opacity="0.28"/><circle cx="1133.7" cy="272.1" r="2.0" fill="#ffe0b0" opacity="0.59"/><circle cx="958.4" cy="305.4" r="3.2" fill="#ffe0b0" opacity="0.31"/><circle cx="496.0" cy="199.9" r="2.2" fill="#ffe0b0" opacity="0.28"/><circle cx="1196.5" cy="55.5" r="2.1" fill="#ffe0b0" opacity="0.26"/><circle cx="463.6" cy="383.5" r="3.3" fill="#ffe0b0" opacity="0.25"/><circle cx="69.2" cy="212.2" r="1.4" fill="#ffe0b0" opacity="0.17"/><circle cx="805.1" cy="224.3" r="1.8" fill="#ffe0b0" opacity="0.65"/><circle cx="820.2" cy="228.9" r="3.1" fill="#ffe0b0" opacity="0.61"/><circle cx="393.0" cy="346.7" r="1.5" fill="#ffe0b0" opacity="0.27"/><circle cx="752.0" cy="450.2" r="3.7" fill="#ffe0b0" opacity="0.42"/>
     <rect width="1200" height="500" fill="url(#vig)"/>
  <radialGradient id="vig" cx="50%" cy="42%" r="75%">
    <stop offset="55%" stop-color="#000" stop-opacity="0"/>
    <stop offset="100%" stop-color="#000" stop-opacity="0.55"/></radialGradient></svg>